{
	"asset":{
		"generator":"Khronos glTF Blender I/O v5.1.19",
		"version":"2.0"
	},
	"scene":0,
	"scenes":[
		{
			"name":"Scene",
			"nodes":[
				2
			]
		}
	],
	"nodes":[
		{
			"mesh":0,
			"name":"Bola"
		},
		{
			"mesh":1,
			"name":"Costuras"
		},
		{
			"children":[
				0,
				1
			],
			"name":"Baseball",
			"scale":[
				10,
				10,
				10
			]
		}
	],
	"materials":[
		{
			"doubleSided":true,
			"name":"MT_cuero",
			"normalTexture":{
				"index":0,
				"scale":0.5000000596046448
			},
			"pbrMetallicRoughness":{
				"baseColorTexture":{
					"index":1
				},
				"metallicFactor":0,
				"roughnessFactor":0.29818183183670044
			}
		},
		{
			"doubleSided":true,
			"name":"MT_costuras",
			"normalTexture":{
				"index":2
			},
			"pbrMetallicRoughness":{
				"baseColorFactor":[
					1,
					0,
					0.002651360584422946,
					1
				],
				"metallicFactor":0,
				"roughnessFactor":0.7400000095367432
			}
		}
	],
	"meshes":[
		{
			"name":"Cube.001",
			"primitives":[
				{
					"attributes":{
						"POSITION":0,
						"NORMAL":1,
						"TEXCOORD_0":2
					},
					"indices":3,
					"material":0
				}
			]
		},
		{
			"name":"B\u00e9zierCurve.003",
			"primitives":[
				{
					"attributes":{
						"POSITION":4,
						"NORMAL":5,
						"TEXCOORD_0":6
					},
					"indices":7,
					"material":1
				}
			]
		}
	],
	"textures":[
		{
			"sampler":0,
			"source":0
		},
		{
			"sampler":0,
			"source":1
		},
		{
			"sampler":0,
			"source":2
		}
	],
	"images":[
		{
			"mimeType":"image/jpeg",
			"name":"Normals",
			"uri":"Normals.jpg"
		},
		{
			"mimeType":"image/jpeg",
			"name":"Color bola",
			"uri":"Color%20bola.jpg"
		},
		{
			"mimeType":"image/jpeg",
			"name":"Normales_costuras",
			"uri":"Normales_costuras.jpg"
		}
	],
	"accessors":[
		{
			"bufferView":0,
			"componentType":5126,
			"count":1346,
			"max":[
				0.03747835010290146,
				0.07500344514846802,
				0.03747836872935295
			],
			"min":[
				-0.03747834637761116,
				-7.982707029441372e-05,
				-0.03747836872935295
			],
			"type":"VEC3"
		},
		{
			"bufferView":1,
			"componentType":5126,
			"count":1346,
			"type":"VEC3"
		},
		{
			"bufferView":2,
			"componentType":5126,
			"count":1346,
			"type":"VEC2"
		},
		{
			"bufferView":3,
			"componentType":5123,
			"count":7680,
			"type":"SCALAR"
		},
		{
			"bufferView":4,
			"componentType":5126,
			"count":13572,
			"max":[
				0.028930507600307465,
				0.0660603865981102,
				0.029293686151504517
			],
			"min":[
				-0.028975047171115875,
				0.008523187600076199,
				-0.029249638319015503
			],
			"type":"VEC3"
		},
		{
			"bufferView":5,
			"componentType":5126,
			"count":13572,
			"type":"VEC3"
		},
		{
			"bufferView":6,
			"componentType":5126,
			"count":13572,
			"type":"VEC2"
		},
		{
			"bufferView":7,
			"componentType":5123,
			"count":30888,
			"type":"SCALAR"
		}
	],
	"bufferViews":[
		{
			"buffer":0,
			"byteLength":16152,
			"byteOffset":0,
			"target":34962
		},
		{
			"buffer":0,
			"byteLength":16152,
			"byteOffset":16152,
			"target":34962
		},
		{
			"buffer":0,
			"byteLength":10768,
			"byteOffset":32304,
			"target":34962
		},
		{
			"buffer":0,
			"byteLength":15360,
			"byteOffset":43072,
			"target":34963
		},
		{
			"buffer":0,
			"byteLength":162864,
			"byteOffset":58432,
			"target":34962
		},
		{
			"buffer":0,
			"byteLength":162864,
			"byteOffset":221296,
			"target":34962
		},
		{
			"buffer":0,
			"byteLength":108576,
			"byteOffset":384160,
			"target":34962
		},
		{
			"buffer":0,
			"byteLength":61776,
			"byteOffset":492736,
			"target":34963
		}
	],
	"samplers":[
		{
			"magFilter":9729,
			"minFilter":9987
		}
	],
	"buffers":[
		{
			"byteLength":554512,
			"uri":"ball.bin"
		}
	]
}
