{
	"asset":{
		"generator":"Khronos glTF Blender I/O v5.1.19",
		"version":"2.0"
	},
	"extensionsUsed":[
		"KHR_materials_specular"
	],
	"scene":0,
	"scenes":[
		{
			"name":"Scene",
			"nodes":[
				0,
				3,
				7
			]
		}
	],
	"nodes":[
		{
			"mesh":0,
			"name":"Plane",
			"scale":[
				10,
				1,
				10
			],
			"translation":[
				0,
				-0.5,
				0
			]
		},
		{
			"mesh":1,
			"name":"Bola"
		},
		{
			"mesh":2,
			"name":"Costuras"
		},
		{
			"children":[
				1,
				2
			],
			"name":"Baseball",
			"scale":[
				10,
				10,
				10
			],
			"translation":[
				0,
				-0.5,
				0
			]
		},
		{
			"mesh":3,
			"name":"Print Back"
		},
		{
			"mesh":4,
			"name":"Print Front"
		},
		{
			"mesh":5,
			"name":"Whte Mug"
		},
		{
			"children":[
				4,
				5,
				6
			],
			"name":"Mug Oh For Fox Sake",
			"rotation":[
				0,
				-1,
				0,
				7.549790126404332e-08
			],
			"scale":[
				5,
				5,
				5
			],
			"translation":[
				0.7918120622634888,
				-0.5000002384185791,
				-0.9058277606964111
			]
		}
	],
	"materials":[
		{
			"doubleSided":true,
			"extensions":{
				"KHR_materials_specular":{
					"specularTexture":{
						"index":0,
						"texCoord":1
					}
				}
			},
			"name":"Varnished old wood",
			"normalTexture":{
				"index":1,
				"texCoord":1
			},
			"pbrMetallicRoughness":{
				"baseColorTexture":{
					"index":2,
					"texCoord":1
				},
				"metallicFactor":0,
				"metallicRoughnessTexture":{
					"index":3,
					"texCoord":1
				}
			}
		},
		{
			"doubleSided":true,
			"name":"MT_cuero",
			"normalTexture":{
				"index":4,
				"scale":0.5000000596046448
			},
			"pbrMetallicRoughness":{
				"baseColorTexture":{
					"index":5
				},
				"metallicFactor":0,
				"roughnessFactor":0.29818183183670044
			}
		},
		{
			"doubleSided":true,
			"name":"MT_costuras",
			"normalTexture":{
				"index":6
			},
			"pbrMetallicRoughness":{
				"baseColorFactor":[
					1,
					0,
					0.002651360584422946,
					1
				],
				"metallicFactor":0,
				"roughnessFactor":0.7400000095367432
			}
		},
		{
			"alphaMode":"BLEND",
			"doubleSided":true,
			"name":"Printing",
			"pbrMetallicRoughness":{
				"baseColorTexture":{
					"index":7
				},
				"metallicFactor":0,
				"metallicRoughnessTexture":{
					"index":8
				}
			}
		},
		{
			"doubleSided":true,
			"name":"White Mug",
			"pbrMetallicRoughness":{
				"baseColorTexture":{
					"index":9
				},
				"metallicFactor":0,
				"metallicRoughnessTexture":{
					"index":10
				}
			}
		}
	],
	"meshes":[
		{
			"name":"Plane",
			"primitives":[
				{
					"attributes":{
						"POSITION":0,
						"NORMAL":1,
						"TEXCOORD_0":2,
						"TEXCOORD_1":3
					},
					"indices":4,
					"material":0
				}
			]
		},
		{
			"name":"Cube.001",
			"primitives":[
				{
					"attributes":{
						"POSITION":5,
						"NORMAL":6,
						"TEXCOORD_0":7
					},
					"indices":8,
					"material":1
				}
			]
		},
		{
			"name":"B\u00e9zierCurve.003",
			"primitives":[
				{
					"attributes":{
						"POSITION":9,
						"NORMAL":10,
						"TEXCOORD_0":11
					},
					"indices":12,
					"material":2
				}
			]
		},
		{
			"name":"Cylinder.003",
			"primitives":[
				{
					"attributes":{
						"POSITION":13,
						"NORMAL":14,
						"TEXCOORD_0":15
					},
					"indices":16,
					"material":3
				}
			]
		},
		{
			"name":"Cylinder.002",
			"primitives":[
				{
					"attributes":{
						"POSITION":17,
						"NORMAL":18,
						"TEXCOORD_0":19
					},
					"indices":16,
					"material":3
				}
			]
		},
		{
			"name":"Cylinder",
			"primitives":[
				{
					"attributes":{
						"POSITION":20,
						"NORMAL":21,
						"TEXCOORD_0":22
					},
					"indices":23,
					"material":4
				}
			]
		}
	],
	"textures":[
		{
			"sampler":0,
			"source":0
		},
		{
			"sampler":0,
			"source":1
		},
		{
			"sampler":0,
			"source":2
		},
		{
			"sampler":0,
			"source":3
		},
		{
			"sampler":0,
			"source":4
		},
		{
			"sampler":0,
			"source":5
		},
		{
			"sampler":0,
			"source":6
		},
		{
			"sampler":0,
			"source":7
		},
		{
			"sampler":0,
			"source":8
		},
		{
			"sampler":0,
			"source":9
		},
		{
			"sampler":0,
			"source":10
		}
	],
	"images":[
		{
			"mimeType":"image/jpeg",
			"name":"WOOD04_specular",
			"uri":"WOOD04_specular.jpg"
		},
		{
			"mimeType":"image/jpeg",
			"name":"WOOD04_normal_opengl",
			"uri":"WOOD04_normal_opengl.jpg"
		},
		{
			"mimeType":"image/jpeg",
			"name":"WOOD04_diffuse",
			"uri":"WOOD04_diffuse.jpg"
		},
		{
			"mimeType":"image/png",
			"name":"WOOD04_roughness",
			"uri":"WOOD04_roughness.png"
		},
		{
			"mimeType":"image/jpeg",
			"name":"Normals",
			"uri":"Normals.jpg"
		},
		{
			"mimeType":"image/jpeg",
			"name":"Color bola",
			"uri":"Color%20bola.jpg"
		},
		{
			"mimeType":"image/jpeg",
			"name":"Normales_costuras",
			"uri":"Normales_costuras.jpg"
		},
		{
			"mimeType":"image/png",
			"name":"Fox Sake Mug png",
			"uri":"Fox%20Sake%20Mug%20png.png"
		},
		{
			"mimeType":"image/png",
			"name":"10%",
			"uri":"10%25.png"
		},
		{
			"mimeType":"image/jpeg",
			"name":"90%",
			"uri":"90%25.jpg"
		},
		{
			"mimeType":"image/png",
			"name":"20%",
			"uri":"20%25.png"
		}
	],
	"accessors":[
		{
			"bufferView":0,
			"componentType":5126,
			"count":4,
			"max":[
				1,
				0,
				1
			],
			"min":[
				-1,
				0,
				-1
			],
			"type":"VEC3"
		},
		{
			"bufferView":1,
			"componentType":5126,
			"count":4,
			"type":"VEC3"
		},
		{
			"bufferView":2,
			"componentType":5126,
			"count":4,
			"type":"VEC2"
		},
		{
			"bufferView":3,
			"componentType":5126,
			"count":4,
			"type":"VEC2"
		},
		{
			"bufferView":4,
			"componentType":5123,
			"count":6,
			"type":"SCALAR"
		},
		{
			"bufferView":5,
			"componentType":5126,
			"count":1346,
			"max":[
				0.03747835010290146,
				0.07500344514846802,
				0.03747836872935295
			],
			"min":[
				-0.03747834637761116,
				-7.982707029441372e-05,
				-0.03747836872935295
			],
			"type":"VEC3"
		},
		{
			"bufferView":6,
			"componentType":5126,
			"count":1346,
			"type":"VEC3"
		},
		{
			"bufferView":7,
			"componentType":5126,
			"count":1346,
			"type":"VEC2"
		},
		{
			"bufferView":8,
			"componentType":5123,
			"count":7680,
			"type":"SCALAR"
		},
		{
			"bufferView":9,
			"componentType":5126,
			"count":13572,
			"max":[
				0.028930507600307465,
				0.0660603865981102,
				0.029293686151504517
			],
			"min":[
				-0.028975047171115875,
				0.008523187600076199,
				-0.029249638319015503
			],
			"type":"VEC3"
		},
		{
			"bufferView":10,
			"componentType":5126,
			"count":13572,
			"type":"VEC3"
		},
		{
			"bufferView":11,
			"componentType":5126,
			"count":13572,
			"type":"VEC2"
		},
		{
			"bufferView":12,
			"componentType":5123,
			"count":30888,
			"type":"SCALAR"
		},
		{
			"bufferView":13,
			"componentType":5126,
			"count":72,
			"max":[
				0.031764835119247437,
				0.12928931415081024,
				-0.03864024952054024
			],
			"min":[
				-0.045787226408720016,
				0.011703377589583397,
				-0.05470464378595352
			],
			"type":"VEC3"
		},
		{
			"bufferView":14,
			"componentType":5126,
			"count":72,
			"type":"VEC3"
		},
		{
			"bufferView":15,
			"componentType":5126,
			"count":72,
			"type":"VEC2"
		},
		{
			"bufferView":16,
			"componentType":5123,
			"count":336,
			"type":"SCALAR"
		},
		{
			"bufferView":17,
			"componentType":5126,
			"count":72,
			"max":[
				0.031769223511219025,
				0.12928931415081024,
				0.055120889097452164
			],
			"min":[
				-0.04578283801674843,
				0.011703377589583397,
				0.039056506007909775
			],
			"type":"VEC3"
		},
		{
			"bufferView":18,
			"componentType":5126,
			"count":72,
			"type":"VEC3"
		},
		{
			"bufferView":19,
			"componentType":5126,
			"count":72,
			"type":"VEC2"
		},
		{
			"bufferView":20,
			"componentType":5126,
			"count":1847,
			"max":[
				0.09602145850658417,
				0.1406610757112503,
				0.05503233149647713
			],
			"min":[
				-0.061843495815992355,
				0.0005712165147997439,
				-0.05463665351271629
			],
			"type":"VEC3"
		},
		{
			"bufferView":21,
			"componentType":5126,
			"count":1847,
			"type":"VEC3"
		},
		{
			"bufferView":22,
			"componentType":5126,
			"count":1847,
			"type":"VEC2"
		},
		{
			"bufferView":23,
			"componentType":5123,
			"count":7968,
			"type":"SCALAR"
		}
	],
	"bufferViews":[
		{
			"buffer":0,
			"byteLength":48,
			"byteOffset":0,
			"target":34962
		},
		{
			"buffer":0,
			"byteLength":48,
			"byteOffset":48,
			"target":34962
		},
		{
			"buffer":0,
			"byteLength":32,
			"byteOffset":96,
			"target":34962
		},
		{
			"buffer":0,
			"byteLength":32,
			"byteOffset":128,
			"target":34962
		},
		{
			"buffer":0,
			"byteLength":12,
			"byteOffset":160,
			"target":34963
		},
		{
			"buffer":0,
			"byteLength":16152,
			"byteOffset":172,
			"target":34962
		},
		{
			"buffer":0,
			"byteLength":16152,
			"byteOffset":16324,
			"target":34962
		},
		{
			"buffer":0,
			"byteLength":10768,
			"byteOffset":32476,
			"target":34962
		},
		{
			"buffer":0,
			"byteLength":15360,
			"byteOffset":43244,
			"target":34963
		},
		{
			"buffer":0,
			"byteLength":162864,
			"byteOffset":58604,
			"target":34962
		},
		{
			"buffer":0,
			"byteLength":162864,
			"byteOffset":221468,
			"target":34962
		},
		{
			"buffer":0,
			"byteLength":108576,
			"byteOffset":384332,
			"target":34962
		},
		{
			"buffer":0,
			"byteLength":61776,
			"byteOffset":492908,
			"target":34963
		},
		{
			"buffer":0,
			"byteLength":864,
			"byteOffset":554684,
			"target":34962
		},
		{
			"buffer":0,
			"byteLength":864,
			"byteOffset":555548,
			"target":34962
		},
		{
			"buffer":0,
			"byteLength":576,
			"byteOffset":556412,
			"target":34962
		},
		{
			"buffer":0,
			"byteLength":672,
			"byteOffset":556988,
			"target":34963
		},
		{
			"buffer":0,
			"byteLength":864,
			"byteOffset":557660,
			"target":34962
		},
		{
			"buffer":0,
			"byteLength":864,
			"byteOffset":558524,
			"target":34962
		},
		{
			"buffer":0,
			"byteLength":576,
			"byteOffset":559388,
			"target":34962
		},
		{
			"buffer":0,
			"byteLength":22164,
			"byteOffset":559964,
			"target":34962
		},
		{
			"buffer":0,
			"byteLength":22164,
			"byteOffset":582128,
			"target":34962
		},
		{
			"buffer":0,
			"byteLength":14776,
			"byteOffset":604292,
			"target":34962
		},
		{
			"buffer":0,
			"byteLength":15936,
			"byteOffset":619068,
			"target":34963
		}
	],
	"samplers":[
		{
			"magFilter":9729,
			"minFilter":9987
		}
	],
	"buffers":[
		{
			"byteLength":635004,
			"uri":"gltf.bin"
		}
	]
}
